<svg xmlns="http://www.w3.org/2000/svg" version="1.1" xmlns:xlink="http://www.w3.org/1999/xlink" xmlns:svgjs="http://svgjs.com/svgjs" width="34" height="41"><svg width="34" height="41" viewBox="0 0 34 41" fill="none" xmlns="http://www.w3.org/2000/svg">
<path d="M9.99733 1.90309C11.4738 0.190371 13.916 -0.318203 15.9535 0.662779L23.1691 4.13696C24.8997 4.97022 26 6.7212 26 8.64197V17.7461C26 18.8815 26.3864 19.983 27.0957 20.8696L32.453 27.5663C33.4278 28.7848 33.7779 30.3886 33.3994 31.9024L32.0854 37.1584C31.4675 39.6301 29.0899 41.2419 26.5651 40.9007L14.5026 39.2706C13.218 39.097 12.051 38.4313 11.2478 37.4139L5.57244 30.2251C5.19401 29.7458 4.90661 29.2011 4.72445 28.6182L0.828685 16.1518C0.313335 14.5027 0.685907 12.7043 1.81404 11.3957L9.99733 1.90309Z" fill="#626FB5"></path>
</svg><style>@media (prefers-color-scheme: light) { :root { filter: none; } }
</style></svg>