<svg width="34" height="41" viewBox="0 0 34 41" fill="none" xmlns="http://www.w3.org/2000/svg">
<path d="M11.5122 3.20897C12.398 2.18134 13.8634 1.87619 15.0858 2.46478L22.3014 5.93897C23.3398 6.43892 24 7.48951 24 8.64197V17.7461C24 19.3356 24.541 20.8778 25.5339 22.119L30.8913 28.8157C31.4762 29.5468 31.6862 30.509 31.4591 31.4174L30.1451 36.6733C29.7744 38.1563 28.3478 39.1234 26.8329 38.9187L14.7705 37.2886C13.9997 37.1845 13.2995 36.7851 12.8176 36.1746L7.1422 28.9858C6.91515 28.6982 6.7427 28.3714 6.63341 28.0217L2.73764 15.5552C2.42843 14.5658 2.65198 13.4868 3.32885 12.7016L11.5122 3.20897Z" stroke="white" stroke-width="4"/>
</svg>
